Coordinates
version=1
nRows=8
nColumns=40
inDegrees=yes

Units are S.I. units (second, meters, Newtons, ...)
Angles are in degrees.

endheader
time	pelvis_tilt	pelvis_list	pelvis_rotation	pelvis_tx	pelvis_ty	pelvis_tz	hip_flexion_r	hip_adduction_r	hip_rotation_r	knee_angle_r	knee_angle_r_beta	ankle_angle_r	subtalar_angle_r	mtp_angle_r	hip_flexion_l	hip_adduction_l	hip_rotation_l	knee_angle_l	knee_angle_l_beta	ankle_angle_l	subtalar_angle_l	mtp_angle_l	lumbar_extension	lumbar_bending	lumbar_rotation	arm_flex_r	arm_add_r	arm_rot_r	elbow_flex_r	pro_sup_r	wrist_flex_r	wrist_dev_r	arm_flex_l	arm_add_l	arm_rot_l	elbow_flex_l	pro_sup_l	wrist_flex_l	wrist_dev_l
     28.93000000	     -0.75252617	     -5.31196853	      3.18196970	      1.02295798	      0.93252385	      0.47001167	     10.25538571	      2.84982875	    -13.57362274	     17.74960630	     17.74960630	     10.88529213	      2.34066982	     -3.72367835	     28.26911953	    -12.51947945	      1.22451646	     64.11554838	     64.11554838	     10.11822529	    -18.67724930	     13.20553071	    -12.18889494	      6.68703572	      2.15903872	     12.53578695	    -19.92222697	      0.25935313	     60.49697640	     45.74672321	      0.00000000	      0.00000000	     -2.49749872	    -10.19705535	    -10.54202453	     36.56305318	     45.97438755	      0.00000000	      0.00000000
     28.94300000	     -0.95976237	     -5.15939305	      3.50055795	      1.02194964	      0.93295689	      0.47019277	      9.86709440	      2.74851260	    -13.82725773	     17.23074274	     17.23074274	     10.98607748	      2.47056307	     -3.71543096	     29.45977158	    -12.18554031	      1.22053137	     61.88366948	     61.88366948	     10.34681801	    -18.67962715	     13.35437368	    -12.10970900	      6.61455807	      2.50601646	     14.00773695	    -20.17161120	      0.11019160	     61.16070673	     45.73465153	      0.00000000	      0.00000000	     -2.76977088	    -10.08781525	    -10.49657713	     36.36482780	     45.97067095	      0.00000000	      0.00000000
     28.95600000	     -1.08945313	     -5.02028029	      3.83726700	      1.02103998	      0.93355877	      0.47030173	      9.27668061	      2.68663785	    -14.13216650	     16.48997978	     16.48997978	     11.00802763	      2.76797441	     -3.71528340	     30.34238858	    -11.78884991	      1.27097887	     59.28102014	     59.28102014	     10.47255720	    -18.67402407	     13.47448740	    -12.13058804	      6.55286216	      2.64199315	     15.53988098	    -20.30385919	      0.04953639	     61.99422600	     45.71297784	      0.00000000	      0.00000000	     -3.14885356	    -10.03686556	    -10.44928224	     36.14432581	     45.96700317	      0.00000000	      0.00000000
     28.96900000	     -1.21802347	     -4.90101065	      4.16898255	      1.02014924	      0.93406904	      0.47033305	      8.71141333	      2.63864407	    -14.46002354	     15.79280894	     15.79280894	     11.02580629	      3.07679080	     -3.79091479	     31.05237381	    -11.35532494	      1.37048690	     56.39834229	     56.39834229	     10.48571285	    -18.61073163	     13.54907338	    -12.14802461	      6.51626573	      2.80319620	     17.05800562	    -20.48479578	      0.05919132	     62.79885008	     45.68941613	      0.00000000	      0.00000000	     -3.52665438	     -9.97222950	    -10.41093380	     36.00357321	     45.96531902	      0.00000000	      0.00000000
     28.98200000	     -1.39153203	     -4.77454462	      4.45510202	      1.01922415	      0.93442316	      0.47025304	      8.24657858	      2.56826674	    -14.74507686	     15.17540672	     15.17540672	     11.03307503	      3.33506070	     -3.89081179	     31.63319683	    -10.84984370	      1.51873909	     53.25307754	     53.25307754	     10.45523946	    -18.45899347	     13.58173510	    -12.13433079	      6.46539173	      3.00743685	     18.52600070	    -20.70700420	      0.07472058	     63.52055711	     45.66868873	      0.00000000	      0.00000000	     -3.86926636	     -9.88756549	    -10.38124470	     35.92048484	     45.96435711	      0.00000000	      0.00000000
     28.99500000	     -1.52622401	     -4.68909039	      4.75005398	      1.01839201	      0.93471272	      0.47001397	      7.66989996	      2.52941939	    -15.23073215	     14.41827401	     14.41827401	     10.89897381	      3.92481189	     -4.39655267	     31.98657266	    -10.35463664	      1.72904646	     49.79730648	     49.79730648	      9.99761956	    -18.22676811	     12.50332483	    -12.16646721	      6.49693145	      2.95886087	     20.12264719	    -20.85153045	      0.55219194	     64.31369393	     45.62268085	      0.00000000	      0.00000000	     -4.40345298	     -9.82307744	    -10.40206666	     35.98036764	     45.98542866	      0.00000000	      0.00000000
     29.00800000	     -1.74339228	     -4.54248305	      4.97102970	      1.01746433	      0.93478670	      0.46971779	      7.38923546	      2.41226975	    -15.33839046	     14.04724639	     14.04724639	     10.96995872	      3.92608899	     -4.46931415	     32.31018118	     -9.73625938	      2.02943329	     46.23034479	     46.23034479	      9.92107666	    -17.70051127	     12.58062766	    -12.10070019	      6.39365389	      3.28765771	     21.42702650	    -21.06823203	      0.47795038	     64.82214071	     45.61261285	      0.00000000	      0.00000000	     -4.62472610	     -9.71176679	    -10.39329370	     35.93721322	     45.98697681	      0.00000000	      0.00000000
     29.02100000	     -1.93573119	     -4.43488450	      5.17659209	      1.01662095	      0.93479839	      0.46929729	      7.05435383	      2.33275147	    -15.49924925	     13.62749270	     13.62749270	     11.02919004	      4.05424005	     -4.55261024	     32.47159533	     -9.15176460	      2.40617667	     42.50906614	     42.50906614	      9.83723464	    -16.88659740	     12.52366236	    -12.06389232	      6.32457264	      3.50202450	     22.71699030	    -21.14112617	      0.42117493	     65.39067664	     45.59985936	      0.00000000	      0.00000000	     -4.87403007	     -9.62303916	    -10.38532575	     35.84574859	     45.98772434	      0.00000000	      0.00000000
